<svg width="306" height="61" viewBox="0 0 306 61" fill="none" xmlns="http://www.w3.org/2000/svg">
<path d="M85.1091 3.56694C85.1091 2.77658 84.9219 2.23581 84.5475 1.94463C84.1731 1.61184 83.6116 1.44545 82.8628 1.44545C81.5317 1.44545 80.0134 1.94463 78.3079 2.94297C76.6439 3.94132 74.9384 5.23085 73.1913 6.81157C71.4442 8.39229 69.7387 10.181 68.0748 12.1777C66.4109 14.1744 64.9758 16.1711 63.7694 18.1678C64.643 17.8766 65.7661 17.5022 67.1388 17.0446C68.5532 16.5871 70.0507 16.0463 71.6314 15.4223C73.2121 14.7983 74.7928 14.0912 76.3736 13.3008C77.9959 12.4689 79.4518 11.5745 80.7413 10.6178C82.0309 9.61942 83.0708 8.53788 83.8612 7.37314C84.6931 6.2084 85.1091 4.93967 85.1091 3.56694ZM46.2983 24.2826C46.7143 24.0331 47.5047 23.6795 48.6694 23.2219C49.8342 22.7643 51.0821 22.3067 52.4132 21.8492C53.7444 21.35 55.0131 20.8924 56.2194 20.4764C57.4258 20.0605 58.3201 19.7485 58.9025 19.5405C59.6096 18.5837 60.504 17.4606 61.5855 16.1711C62.7087 14.8399 63.9358 13.4672 65.2669 12.0529C66.6397 10.6386 68.0956 9.24504 69.6347 7.87231C71.2154 6.49958 72.7961 5.27245 74.3769 4.19091C75.9576 3.06777 77.5175 2.17341 79.0566 1.50785C80.5957 0.800687 82.0517 0.447107 83.4244 0.447107C84.4227 0.447107 85.2547 0.675894 85.9203 1.13347C86.6274 1.59104 86.981 2.3606 86.981 3.44215C86.981 4.77328 86.5442 6.04201 85.6707 7.24834C84.7971 8.45468 83.6532 9.59862 82.2388 10.6802C80.8245 11.7201 79.223 12.7185 77.4343 13.6752C75.6872 14.5904 73.9193 15.4223 72.1306 16.1711C70.3835 16.9198 68.6988 17.5854 67.0764 18.1678C65.4541 18.7085 64.1022 19.1453 63.0207 19.4781C62.4383 20.3932 61.6687 21.7036 60.712 23.4091C59.7968 25.073 58.8817 26.9033 57.9665 28.9C57.0514 30.8967 56.261 32.9558 55.5955 35.0773C54.9715 37.1988 54.6595 39.1539 54.6595 40.9426C54.6595 41.5665 54.7843 42.0657 55.0339 42.4401C55.2835 42.8145 55.6163 43.0017 56.0322 43.0017C56.989 43.0017 58.0497 42.6481 59.2145 41.9409C60.3792 41.1921 61.7519 40.069 63.3327 38.5715C64.5806 37.3652 65.4541 36.4292 65.9533 35.7636C66.4941 35.0981 66.8477 34.7653 67.014 34.7653C67.222 34.7653 67.326 34.8693 67.326 35.0773C67.326 35.2021 66.8685 35.7636 65.9533 36.762C65.0798 37.7603 64.019 38.8419 62.7711 40.0066C61.6479 41.0466 60.4832 41.9825 59.2769 42.8145C58.0705 43.6048 56.989 44 56.0322 44C54.8259 44 53.8275 43.5632 53.0372 42.6897C52.2884 41.8161 51.9141 40.2562 51.9141 38.0099C51.9141 36.1796 52.1012 34.4533 52.4756 32.831C52.85 31.1671 53.3284 29.628 53.9107 28.2136C54.4931 26.7577 55.1379 25.4474 55.845 24.2826C56.5522 23.0763 57.2386 21.9948 57.9041 21.038L57.7793 20.9132C57.0306 21.1628 56.0946 21.4748 54.9715 21.8492C53.8483 22.2236 52.7044 22.6187 51.5397 23.0347C50.3749 23.4507 49.2518 23.8875 48.1702 24.345C47.0887 24.761 46.236 25.1562 45.612 25.5306C44.1145 28.1928 42.3882 30.6679 40.4331 32.9558C38.5196 35.2437 36.3565 37.2404 33.9438 38.9459C31.5311 40.6098 28.8897 41.9409 26.0194 42.9393C23.1492 43.896 20.0501 44.3744 16.7223 44.3744C14.3928 44.3744 12.2506 44.104 10.2955 43.5632C8.38196 42.9809 6.71804 42.1697 5.30372 41.1298C3.93099 40.0898 2.84945 38.8419 2.05909 37.386C1.26873 35.93 0.873554 34.2869 0.873554 32.4566C0.873554 30.1271 1.33113 28.0264 2.24628 26.1545C3.20303 24.2826 4.47176 22.7019 6.05248 21.4124C7.6332 20.0813 9.4427 19.0621 11.481 18.355C13.5609 17.6478 15.7032 17.2942 17.9079 17.2942C19.239 17.2942 20.5493 17.5022 21.8388 17.9182C23.17 18.3342 24.3555 18.9373 25.3955 19.7277C26.477 20.4764 27.3298 21.4332 27.9537 22.5979C28.6193 23.7211 28.9521 25.0106 28.9521 26.4665C28.9521 28.0888 28.5569 29.5656 27.7665 30.8967C26.9762 32.1862 25.9362 33.3094 24.6467 34.2661C23.3572 35.1813 21.922 35.8884 20.3413 36.3876C18.7606 36.8868 17.2007 37.1364 15.6616 37.1364C14.8296 37.1364 14.0185 37.074 13.2281 36.9492C12.4377 36.8244 11.7306 36.6788 11.1066 36.5124C10.4826 36.346 9.96267 36.1796 9.54669 36.0132C9.17231 35.8468 8.98512 35.7012 8.98512 35.5764C8.98512 35.2853 9.13072 35.1397 9.4219 35.1397C9.4635 35.1397 9.65069 35.2021 9.98347 35.3269C10.3163 35.4517 10.753 35.5972 11.2938 35.7636C11.8346 35.93 12.4377 36.0756 13.1033 36.2004C13.8105 36.3252 14.5592 36.3876 15.3496 36.3876C16.7639 36.3876 18.2198 36.1796 19.7174 35.7636C21.2149 35.3477 22.5668 34.7237 23.7731 33.8917C24.9795 33.0598 25.9778 32.0406 26.7682 30.8343C27.5585 29.5864 27.9537 28.1512 27.9537 26.5289C27.9537 25.5306 27.7041 24.5946 27.205 23.7211C26.7474 22.8475 26.0818 22.0988 25.2083 21.4748C24.3347 20.8508 23.2948 20.3517 22.0884 19.9773C20.8821 19.6029 19.5302 19.4157 18.0326 19.4157C16.036 19.4157 14.0809 19.7485 12.1674 20.414C10.2955 21.0796 8.61074 22.0156 7.11322 23.2219C5.6157 24.4282 4.40937 25.905 3.49421 27.6521C2.57906 29.3576 2.12149 31.2711 2.12149 33.3926C2.12149 34.8069 2.47507 36.138 3.18223 37.386C3.88939 38.5923 4.86694 39.6738 6.11488 40.6306C7.40441 41.5457 8.94353 42.2737 10.7322 42.8145C12.5625 43.3552 14.58 43.6256 16.7847 43.6256C19.3638 43.6256 21.818 43.1888 24.1475 42.3153C26.5186 41.4001 28.7025 40.1938 30.6992 38.6963C32.7375 37.1988 34.5678 35.4517 36.1901 33.455C37.8124 31.4583 39.1851 29.3576 40.3083 27.1529C39.5595 27.4441 38.7275 27.8393 37.8124 28.3384C36.9388 28.8376 36.0861 29.3368 35.2541 29.8359C34.4638 30.3351 33.7774 30.7719 33.195 31.1463C32.6543 31.4791 32.3631 31.6455 32.3215 31.6455C31.9887 31.6455 31.8223 31.5415 31.8223 31.3335C31.8223 31.1671 32.1135 30.8759 32.6959 30.4599C33.3198 30.0439 34.0894 29.5864 35.0045 29.0872C35.9197 28.5464 36.918 27.9848 37.9996 27.4025C39.1227 26.8201 40.1835 26.2793 41.1818 25.7802C41.8474 24.657 42.6793 23.2843 43.6777 21.662C44.7176 19.9981 45.8616 18.2926 47.1095 16.5455C48.3574 14.7567 49.6678 13.0304 51.0405 11.3665C52.4132 9.70262 53.786 8.30909 55.1587 7.18595L55.0339 7.06116C54.2435 7.51873 53.3908 8.0179 52.4756 8.55868C51.6021 9.09945 50.6869 9.59862 49.7302 10.0562C48.815 10.5138 47.8583 10.909 46.8599 11.2417C45.9032 11.5329 44.9464 11.6785 43.9897 11.6785C41.1194 11.6785 39.6843 10.2018 39.6843 7.24834C39.6843 6.04201 39.7467 5.10606 39.8715 4.4405C39.9963 3.77493 40.0587 3.23416 40.0587 2.81818C40.0587 1.90303 39.7467 1.44545 39.1227 1.44545C38.9147 1.44545 38.5612 1.54945 38.062 1.75744C37.6044 1.92383 37.0012 2.25661 36.2525 2.75578C35.5037 3.21336 34.6302 3.85812 33.6318 4.69008C32.6335 5.48044 31.5103 6.52038 30.2624 7.80991C28.1409 10.0562 26.6226 11.8865 25.7074 13.3008C24.8339 14.7151 24.2931 15.4223 24.0851 15.4223C23.8355 15.4223 23.7107 15.2975 23.7107 15.0479C23.7107 15.0063 23.8979 14.7151 24.2723 14.1744C24.6467 13.592 25.1251 12.9056 25.7074 12.1153C26.3314 11.2833 27.0386 10.389 27.8289 9.43223C28.6609 8.43388 29.5136 7.49793 30.3872 6.62438C32.1759 4.75248 33.8814 3.25496 35.5037 2.13182C37.1676 1.00868 38.8731 0.447107 40.6202 0.447107C41.9098 0.447107 42.7833 0.883883 43.2409 1.75744C43.6985 2.58939 43.9273 3.50454 43.9273 4.50289C43.9273 5.21005 43.8857 5.85482 43.8025 6.43719C43.7193 7.01956 43.6777 7.74752 43.6777 8.62107C43.6777 9.53622 43.7817 10.1186 43.9897 10.3682C44.1977 10.5762 44.5928 10.6802 45.1752 10.6802C45.9656 10.6802 46.8391 10.5138 47.7959 10.181C48.7526 9.84821 49.7302 9.41143 50.7285 8.87066C51.7685 8.32989 52.8084 7.72672 53.8483 7.06116C54.9299 6.39559 55.9906 5.73003 57.0306 5.06446C57.6545 4.64848 58.2993 4.17011 58.9649 3.62934C59.6304 3.04697 60.296 2.5062 60.9616 2.00702C61.6271 1.46625 62.2511 1.00867 62.8335 0.634294C63.4574 0.259914 64.019 0.0727238 64.5182 0.0727238C65.1838 0.0727238 65.5165 0.322311 65.5165 0.821486C65.5165 1.27906 65.2461 1.65344 64.7054 1.94463C64.2062 2.19421 63.5406 2.4854 62.7087 2.81818C61.9183 3.15096 61.0032 3.58774 59.9632 4.12851C58.9649 4.66928 57.9873 5.41804 57.0306 6.37479C56.1154 7.28994 55.1795 8.49628 54.2227 9.9938C53.3076 11.4913 52.3924 13.0928 51.4773 14.7983C50.5621 16.4623 49.647 18.1262 48.7318 19.7901C47.8583 21.454 47.0055 22.9099 46.1736 24.1579L46.2983 24.2826ZM79.6596 27.4025C78.8277 27.4025 77.9125 27.7561 76.9142 28.4632C75.9158 29.1288 74.9383 29.9607 73.9815 30.9591C73.0664 31.9574 72.2552 33.0182 71.548 34.1413C70.8409 35.2645 70.3833 36.2628 70.1753 37.1364C71.2153 37.0116 72.3592 36.7204 73.6071 36.2628C74.8551 35.7636 76.0198 35.1397 77.1014 34.3909C78.1829 33.6006 79.0773 32.727 79.7844 31.7702C80.5332 30.7719 80.9076 29.7112 80.9076 28.588C80.9076 27.7977 80.4916 27.4025 79.6596 27.4025ZM82.7795 29.6488C82.7795 30.8135 82.2803 31.8742 81.2819 32.831C80.2836 33.7461 79.098 34.5573 77.7253 35.2645C76.3526 35.93 74.9383 36.4916 73.4823 36.9492C72.0264 37.4067 70.8409 37.7187 69.9257 37.8851C69.7593 38.5091 69.6761 39.1955 69.6761 39.9442C69.6761 41.1506 69.8633 42.0033 70.2377 42.5025C70.6537 42.9601 71.3401 43.2096 72.2968 43.2512C73.1288 43.2928 74.3143 42.9601 75.8534 42.2529C77.3925 41.5041 79.1188 40.1938 81.0323 38.3219C82.2387 37.074 83.0498 36.1588 83.4658 35.5764C83.9234 34.9941 84.2146 34.7029 84.3394 34.7029C84.5474 34.7029 84.6514 34.8277 84.6514 35.0773C84.6514 35.1605 84.5058 35.3685 84.2146 35.7012C83.965 36.034 83.6322 36.45 83.2162 36.9492C82.8003 37.4067 82.3219 37.9059 81.7811 38.4467C81.2819 38.9875 80.8036 39.4658 80.346 39.8818C78.7653 41.3377 77.3093 42.3777 75.9782 43.0017C74.6887 43.6256 73.316 43.9584 71.86 44C70.9865 44 70.2377 43.8128 69.6138 43.4384C69.0314 43.064 68.5322 42.5649 68.1162 41.9409C67.7003 41.3169 67.3883 40.6098 67.1803 39.8194C67.0139 39.0291 66.9307 38.2179 66.9307 37.386C66.9307 36.9284 66.9515 36.5332 66.9931 36.2004C67.0763 35.8676 67.1179 35.6596 67.1179 35.5764C67.1179 35.4933 67.0971 35.4517 67.0555 35.4517C66.9307 35.5764 66.8059 35.6388 66.6811 35.6388C66.5979 35.5972 66.5563 35.4725 66.5563 35.2645C66.5563 35.2229 66.6395 35.0773 66.8059 34.8277C67.0139 34.5781 67.2427 34.3077 67.4923 34.0165C67.7834 33.7253 68.0538 33.455 68.3034 33.2054C68.553 32.9142 68.7402 32.7062 68.865 32.5814C70.6121 30.8343 72.4008 29.42 74.2311 28.3384C76.103 27.2153 77.9125 26.6537 79.6596 26.6537C80.6164 26.6537 81.3651 26.9449 81.9059 27.5273C82.4883 28.068 82.7795 28.7752 82.7795 29.6488ZM88.3528 38.1971L88.4775 38.3219C88.8935 37.8643 89.4135 37.2612 90.0375 36.5124C90.6614 35.7636 91.3478 34.9525 92.0966 34.0789C92.8869 33.2054 93.6981 32.3318 94.53 31.4583C95.4036 30.5847 96.2771 29.7944 97.1507 29.0872C98.0242 28.38 98.8562 27.7977 99.6466 27.3401C100.479 26.8825 101.227 26.6537 101.893 26.6537C102.725 26.6537 103.307 26.9865 103.64 27.6521C104.014 28.276 104.202 29.0248 104.202 29.8983C104.202 30.8551 103.848 31.895 103.141 33.0182C102.475 34.1413 101.706 35.2645 100.832 36.3876C100 37.5107 99.2306 38.5923 98.5234 39.6322C97.8578 40.6722 97.5251 41.5873 97.5251 42.3777C97.5251 42.9601 97.8578 43.2512 98.5234 43.2512C98.8562 43.2512 99.2306 43.1888 99.6466 43.064C100.104 42.8977 100.624 42.6273 101.206 42.2529C101.789 41.8369 102.454 41.2753 103.203 40.5682C103.952 39.861 104.805 38.9667 105.761 37.8851C106.385 37.178 106.864 36.6164 107.197 36.2004C107.571 35.7844 107.841 35.4725 108.008 35.2645C108.216 35.0149 108.34 34.8693 108.382 34.8277C108.465 34.7445 108.548 34.7029 108.632 34.7029C108.84 34.7029 108.944 34.8069 108.944 35.0149C108.944 35.0981 108.923 35.1813 108.881 35.2645C108.84 35.3061 108.756 35.4101 108.632 35.5764C108.507 35.7012 108.299 35.9092 108.008 36.2004C107.758 36.45 107.425 36.8452 107.009 37.386C104.888 39.9234 103.141 41.6705 101.768 42.6273C100.395 43.5424 99.2514 44 98.3362 44C97.3795 44 96.6931 43.6464 96.2771 42.9393C95.8612 42.1905 95.6532 41.2129 95.6532 40.0066C95.6532 38.7587 95.9859 37.5731 96.6515 36.45C97.3587 35.2853 98.1282 34.2037 98.9602 33.2054C99.8337 32.207 100.603 31.2919 101.269 30.4599C101.976 29.5864 102.33 28.8376 102.33 28.2136C102.33 27.6729 102.059 27.4025 101.518 27.4025C100.936 27.4025 99.9585 27.8809 98.5858 28.8376C97.2131 29.7944 95.5908 31.2503 93.7189 33.2054C91.8886 35.1605 89.8503 37.6147 87.604 40.5682C85.3993 43.5216 83.153 46.995 80.8651 50.9884L75.6862 60.0983L71.5056 60.3479L92.9077 25.593L92.7829 25.4682C91.951 26.4249 91.0358 27.5065 90.0375 28.7128C89.0807 29.8775 88.1656 30.9799 87.292 32.0198C86.4601 33.0598 85.7321 33.9333 85.1081 34.6405C84.5258 35.3477 84.2138 35.7012 84.1722 35.7012C83.9226 35.7012 83.7978 35.5972 83.7978 35.3893C83.7978 35.3061 83.8186 35.2229 83.8602 35.1397C83.9434 35.0565 84.089 34.8901 84.297 34.6405C84.5466 34.3493 84.9209 33.9333 85.4201 33.3926C85.9193 32.8102 86.6056 31.9782 87.4792 30.8967C88.9351 29.0664 90.0999 27.6105 90.9734 26.5289C91.8886 25.4058 92.6997 24.3866 93.4069 23.4715C94.1556 22.5147 94.8836 21.5164 95.5908 20.4764C96.3395 19.3949 97.2755 17.9806 98.3986 16.2335L101.643 15.6719L88.3528 38.1971ZM124.148 30.2103C124.148 29.4616 123.982 28.8168 123.649 28.276C123.316 27.6937 122.754 27.4025 121.964 27.4025C120.883 27.4025 119.739 27.8601 118.532 28.7752C117.326 29.6904 116.224 30.8343 115.225 32.207C114.227 33.5798 113.395 35.0565 112.729 36.6372C112.105 38.2179 111.793 39.653 111.793 40.9426C111.793 41.8161 111.939 42.4193 112.23 42.7521C112.563 43.0848 112.958 43.2512 113.416 43.2512C114.664 43.2512 115.912 42.8353 117.16 42.0033C118.449 41.1713 119.593 40.1314 120.591 38.8835C121.631 37.5939 122.484 36.1796 123.15 34.6405C123.815 33.1014 124.148 31.6247 124.148 30.2103ZM125.521 30.9591C125.521 31.5831 125.417 32.2486 125.209 32.9558C125.001 33.6629 124.71 34.3701 124.335 35.0773C124.002 35.7844 123.607 36.4708 123.15 37.1364C122.734 37.7603 122.297 38.3011 121.839 38.7587C122.172 38.8419 122.401 38.8835 122.526 38.8835C123.607 38.8835 124.647 38.6131 125.645 38.0723C126.644 37.4899 127.538 36.7412 128.329 35.826C128.745 35.3685 128.994 35.0773 129.077 34.9525C129.202 34.8277 129.306 34.7653 129.389 34.7653C129.597 34.7653 129.701 34.8693 129.701 35.0773C129.701 35.1605 129.618 35.3061 129.452 35.514C129.285 35.722 128.849 36.2004 128.141 36.9492C127.351 37.7811 126.415 38.4467 125.334 38.9459C124.294 39.4034 123.17 39.6322 121.964 39.6322C121.465 39.6322 121.195 39.6114 121.153 39.5698C120.196 40.6514 119.052 41.6705 117.721 42.6273C116.432 43.5424 114.913 44 113.166 44C111.918 44 110.961 43.5216 110.296 42.5649C109.63 41.5665 109.298 40.1938 109.298 38.4467C109.298 37.3236 109.339 36.554 109.422 36.138C109.547 35.722 109.61 35.4101 109.61 35.2021C109.61 34.9525 109.547 34.8277 109.422 34.8277C109.173 34.8277 108.944 34.9941 108.736 35.3269C108.528 35.6596 108.382 35.826 108.299 35.826C108.05 35.826 107.925 35.722 107.925 35.514C107.925 35.4309 108.029 35.2437 108.237 34.9525C108.486 34.6613 108.798 34.3285 109.173 33.9541C109.547 33.5798 109.942 33.1846 110.358 32.7686C110.774 32.3526 111.169 31.9574 111.544 31.5831C113.416 29.8359 115.225 28.588 116.972 27.8393C118.761 27.0489 120.363 26.6537 121.777 26.6537C122.983 26.6537 123.898 27.0697 124.522 27.9017C125.188 28.692 125.521 29.7112 125.521 30.9591ZM130.451 44L138.25 31.3335L138.437 31.1463C138.521 31.0631 138.562 31.0007 138.562 30.9591C138.604 30.9175 138.666 30.8551 138.749 30.7719C139.748 28.9832 140.247 27.8601 140.247 27.4025C140.247 27.3193 140.226 27.1945 140.184 27.0281C140.184 26.8617 140.122 26.7369 139.997 26.6537H139.56C139.144 26.6537 138.728 26.7369 138.313 26.9033C137.938 27.0281 137.439 27.3401 136.815 27.8393C136.357 28.2136 135.733 28.796 134.943 29.5864C134.194 30.3767 133.279 31.3751 132.198 32.5814C132.073 32.831 131.844 33.1014 131.511 33.3926C131.22 33.6421 130.95 33.9541 130.7 34.3285C130.326 34.9109 130.014 35.3269 129.764 35.5764C129.515 35.7844 129.327 35.8884 129.203 35.8884V35.7012H128.953C128.953 35.618 128.995 35.4933 129.078 35.3269C129.161 35.1605 129.203 35.0357 129.203 34.9525C129.327 34.8277 129.494 34.6405 129.702 34.3909C129.951 34.0997 130.201 33.7669 130.451 33.3926L132.385 31.3335C134.34 29.004 135.817 27.4441 136.815 26.6537C137.439 26.2377 137.959 25.905 138.375 25.6554C138.791 25.4058 139.248 25.281 139.748 25.281C140.08 25.281 140.372 25.4058 140.621 25.6554C140.912 25.8634 141.162 26.0921 141.37 26.3417C141.703 26.5913 141.932 26.9033 142.056 27.2777C142.181 27.6521 142.244 28.0264 142.244 28.4008C142.244 29.6072 142.056 30.6055 141.682 31.3959C141.308 32.1446 140.829 32.9974 140.247 33.9541L139.748 34.7029H146.424C147.256 33.1222 148.088 31.6039 148.92 30.1479C149.794 28.6504 150.688 27.2153 151.603 25.8426L155.659 25.593L150.23 34.7029C149.773 35.618 149.253 36.4916 148.67 37.3236C148.13 38.1139 147.693 38.9459 147.36 39.8194C147.069 40.3602 146.882 40.8178 146.798 41.1921C146.715 41.5249 146.674 41.7537 146.674 41.8785V43.0017C146.757 43.0017 146.861 43.0433 146.986 43.1264C147.152 43.168 147.36 43.1888 147.61 43.1888C147.818 43.1888 148.109 43.064 148.483 42.8145C148.899 42.5649 149.336 42.2529 149.794 41.8785C150.376 41.3793 151.021 40.797 151.728 40.1314C152.477 39.4242 153.309 38.5299 154.224 37.4483C154.432 37.1988 154.681 36.9284 154.972 36.6372C155.264 36.3044 155.596 35.9924 155.971 35.7012C156.179 35.3269 156.387 35.0149 156.595 34.7653C156.844 34.4741 157.052 34.3285 157.219 34.3285H157.468V34.7029C157.468 34.8277 157.448 34.9525 157.406 35.0773C157.406 35.2021 157.344 35.4101 157.219 35.7012C156.928 35.7844 156.636 36.034 156.345 36.45C156.096 36.8244 155.638 37.3652 154.972 38.0723C154.14 38.9459 153.35 39.7778 152.601 40.5682C151.853 41.3169 151.062 41.9409 150.23 42.4401C148.982 43.48 148.026 44 147.36 44C147.027 44 146.674 43.9376 146.299 43.8128C145.925 43.688 145.634 43.4176 145.426 43.0017C145.01 42.6273 144.739 42.1281 144.615 41.5041C144.531 40.8802 144.49 40.2562 144.49 39.6322V38.8211C144.573 38.2803 144.719 37.8019 144.927 37.386C145.176 36.9284 145.405 36.4292 145.613 35.8884L145.863 35.7012H139.248L134.631 43.4384L130.451 44ZM174.024 36.5124H160.235L160.983 34.1413H174.773L174.024 36.5124ZM194.241 29.7112C194.241 30.2935 194.033 30.8967 193.617 31.5207C193.201 32.103 192.64 32.3942 191.933 32.3942C191.35 32.3942 190.934 32.2486 190.685 31.9574C190.477 31.6247 190.373 31.2503 190.373 30.8343C190.373 30.4183 190.456 30.1271 190.622 29.9607C190.83 29.7944 191.059 29.6696 191.309 29.5864C191.558 29.4616 191.766 29.3368 191.933 29.212C192.141 29.0456 192.245 28.796 192.245 28.4632C192.245 28.2136 192.12 27.9848 191.87 27.7769C191.662 27.5273 191.309 27.4025 190.81 27.4025C189.853 27.4025 188.792 27.7769 187.627 28.5256C186.504 29.2328 185.443 30.2103 184.445 31.4583C183.447 32.6646 182.594 34.0789 181.887 35.7012C181.221 37.3236 180.889 39.0291 180.889 40.8178C180.889 42.4401 181.762 43.2512 183.509 43.2512C184.591 43.2512 185.839 42.8769 187.253 42.1281C188.709 41.3377 190.123 40.2146 191.496 38.7587C192.328 37.8851 192.973 37.178 193.43 36.6372C193.929 36.0964 194.283 35.7012 194.491 35.4517C194.741 35.1605 194.907 34.9733 194.99 34.8901C195.073 34.7653 195.136 34.7029 195.177 34.7029C195.427 34.7029 195.552 34.8277 195.552 35.0773C195.552 35.1605 195.302 35.4933 194.803 36.0756C194.345 36.6164 193.784 37.2404 193.118 37.9475C191.122 40.1106 189.333 41.6705 187.752 42.6273C186.213 43.5424 184.653 44 183.072 44C182.116 44 181.304 43.792 180.639 43.376C180.015 42.9185 179.516 42.3569 179.141 41.6913C178.767 41.0258 178.497 40.2978 178.33 39.5074C178.205 38.6755 178.143 37.8851 178.143 37.1364C178.143 36.6372 178.164 36.2628 178.205 36.0132C178.289 35.722 178.33 35.5348 178.33 35.4517C178.33 35.3685 178.289 35.3269 178.205 35.3269C178.122 35.3269 178.039 35.3685 177.956 35.4517C177.914 35.5348 177.852 35.5764 177.769 35.5764C177.561 35.5764 177.457 35.4725 177.457 35.2645C177.457 35.2229 177.477 35.1813 177.519 35.1397C177.561 35.0565 177.644 34.9317 177.769 34.7653C177.893 34.5573 178.101 34.2869 178.393 33.9541C178.684 33.6213 179.079 33.1638 179.578 32.5814C181.367 30.4599 183.135 28.9416 184.882 28.0264C186.671 27.1113 188.439 26.6537 190.186 26.6537C191.392 26.6537 192.369 26.9241 193.118 27.4649C193.867 27.964 194.241 28.7128 194.241 29.7112ZM207.115 44C207.323 43.6256 207.697 43.0225 208.238 42.1905C208.779 41.3585 209.361 40.4226 209.985 39.3826C210.651 38.3427 211.337 37.2612 212.044 36.138C212.752 34.9733 213.396 33.8917 213.979 32.8934C214.603 31.8534 215.102 30.9383 215.476 30.1479C215.851 29.316 216.038 28.7128 216.038 28.3384C216.038 27.7561 215.767 27.4441 215.227 27.4025C214.811 27.3609 214.187 27.6729 213.355 28.3384C212.523 29.004 211.587 29.8567 210.547 30.8967C209.549 31.9366 208.509 33.1014 207.427 34.3909C206.346 35.6804 205.306 36.9284 204.307 38.1347C203.351 39.341 202.498 40.4434 201.749 41.4417C201.042 42.4401 200.543 43.168 200.251 43.6256L196.196 44C199.232 39.1331 201.583 35.4309 203.247 32.8934C204.91 30.3143 205.742 28.7752 205.742 28.276C205.742 27.6937 205.43 27.4025 204.806 27.4025C203.933 27.4025 202.976 27.8185 201.936 28.6504C200.938 29.4408 199.919 30.3767 198.879 31.4583C197.423 33.039 196.445 34.1413 195.946 34.7653C195.489 35.3477 195.197 35.6388 195.073 35.6388C194.865 35.6388 194.761 35.514 194.761 35.2645C194.761 35.1813 195.073 34.7861 195.697 34.0789C196.362 33.3302 197.277 32.2902 198.442 30.9591C199.898 29.3368 201.146 28.2136 202.186 27.5897C203.226 26.9657 204.12 26.6537 204.869 26.6537C206.533 26.6537 207.365 27.4441 207.365 29.0248C207.365 29.732 207.24 30.4599 206.99 31.2087C206.741 31.9574 206.429 32.7062 206.054 33.455C205.68 34.2037 205.285 34.9317 204.869 35.6388C204.453 36.3044 204.099 36.9076 203.808 37.4483L203.933 37.5731C204.474 36.9908 205.222 36.0964 206.179 34.8901C207.178 33.6837 208.217 32.4774 209.299 31.2711C210.422 30.0231 211.524 28.9416 212.606 28.0264C213.729 27.1113 214.707 26.6537 215.539 26.6537C216.246 26.6537 216.766 26.8825 217.099 27.3401C217.473 27.7561 217.66 28.4632 217.66 29.4616C217.66 30.1687 217.556 30.8759 217.348 31.5831C217.14 32.2902 216.87 32.9974 216.537 33.7045C216.246 34.3701 215.913 35.0149 215.539 35.6388C215.206 36.2628 214.894 36.8244 214.603 37.3236L214.728 37.4483C215.268 36.8244 216.017 35.9092 216.974 34.7029C217.972 33.4966 219.033 32.311 220.156 31.1463C221.321 29.9399 222.465 28.9 223.588 28.0264C224.753 27.1113 225.772 26.6537 226.645 26.6537C227.228 26.6537 227.727 26.9033 228.143 27.4025C228.6 27.9017 228.829 28.7128 228.829 29.8359C228.829 30.8343 228.517 31.8742 227.893 32.9558C227.269 34.0373 226.562 35.1189 225.772 36.2004C224.981 37.2404 224.253 38.2595 223.588 39.2579C222.922 40.2146 222.548 41.0882 222.465 41.8785C222.423 42.2113 222.485 42.5233 222.652 42.8145C222.86 43.1056 223.13 43.2512 223.463 43.2512C224.045 43.2512 224.836 42.8977 225.834 42.1905C226.874 41.4417 227.976 40.4642 229.141 39.2579C230.181 38.1347 230.971 37.282 231.512 36.6996C232.053 36.0756 232.448 35.6388 232.698 35.3893C232.947 35.0981 233.093 34.9317 233.135 34.8901C233.218 34.8069 233.301 34.7653 233.384 34.7653C233.592 34.7653 233.696 34.8693 233.696 35.0773C233.696 35.1605 233.571 35.3477 233.322 35.6388C233.114 35.8884 232.843 36.2212 232.511 36.6372C232.178 37.0116 231.803 37.4275 231.387 37.8851C230.971 38.3011 230.555 38.7171 230.139 39.1331C228.559 40.7554 227.228 41.9825 226.146 42.8145C225.106 43.6048 224.149 44 223.276 44C222.319 44 221.633 43.6464 221.217 42.9393C220.801 42.1905 220.593 41.2129 220.593 40.0066C220.593 38.7171 220.926 37.4691 221.591 36.2628C222.298 35.0565 223.068 33.9333 223.9 32.8934C224.732 31.8534 225.481 30.9175 226.146 30.0855C226.853 29.2536 227.207 28.5464 227.207 27.964C227.207 27.8393 227.144 27.7145 227.02 27.5897C226.936 27.4649 226.728 27.4025 226.396 27.4025C225.813 27.4025 225.065 27.7561 224.149 28.4632C223.234 29.1288 222.257 30.0023 221.217 31.0839C220.177 32.1238 219.116 33.2886 218.035 34.5781C216.953 35.826 215.934 37.0532 214.977 38.2595C214.062 39.4658 213.251 40.5682 212.544 41.5665C211.836 42.5233 211.337 43.2096 211.046 43.6256L207.115 44ZM237.398 38.1971L237.523 38.3219C237.939 37.8643 238.459 37.2612 239.083 36.5124C239.707 35.7636 240.393 34.9525 241.142 34.0789C241.932 33.2054 242.743 32.3318 243.575 31.4583C244.449 30.5847 245.322 29.7944 246.196 29.0872C247.069 28.38 247.901 27.7977 248.692 27.3401C249.524 26.8825 250.272 26.6537 250.938 26.6537C251.77 26.6537 252.352 26.9865 252.685 27.6521C253.06 28.276 253.247 29.0248 253.247 29.8983C253.247 30.8551 252.893 31.895 252.186 33.0182C251.52 34.1413 250.751 35.2645 249.877 36.3876C249.045 37.5107 248.276 38.5923 247.569 39.6322C246.903 40.6722 246.57 41.5873 246.57 42.3777C246.57 42.9601 246.903 43.2512 247.569 43.2512C247.901 43.2512 248.276 43.1888 248.692 43.064C249.149 42.8977 249.669 42.6273 250.252 42.2529C250.834 41.8369 251.5 41.2753 252.248 40.5682C252.997 39.861 253.85 38.9667 254.807 37.8851C255.431 37.178 255.909 36.6164 256.242 36.2004C256.616 35.7844 256.887 35.4725 257.053 35.2645C257.261 35.0149 257.386 34.8693 257.427 34.8277C257.511 34.7445 257.594 34.7029 257.677 34.7029C257.885 34.7029 257.989 34.8069 257.989 35.0149C257.989 35.0981 257.968 35.1813 257.926 35.2645C257.885 35.3061 257.802 35.4101 257.677 35.5764C257.552 35.7012 257.344 35.9092 257.053 36.2004C256.803 36.45 256.471 36.8452 256.055 37.386C253.933 39.9234 252.186 41.6705 250.813 42.6273C249.441 43.5424 248.297 44 247.381 44C246.425 44 245.738 43.6464 245.322 42.9393C244.906 42.1905 244.698 41.2129 244.698 40.0066C244.698 38.7587 245.031 37.5731 245.697 36.45C246.404 35.2853 247.173 34.2037 248.005 33.2054C248.879 32.207 249.649 31.2919 250.314 30.4599C251.021 29.5864 251.375 28.8376 251.375 28.2136C251.375 27.6729 251.104 27.4025 250.564 27.4025C249.981 27.4025 249.004 27.8809 247.631 28.8376C246.258 29.7944 244.636 31.2503 242.764 33.2054C240.934 35.1605 238.895 37.6147 236.649 40.5682C234.445 43.5216 232.198 46.995 229.91 50.9884L224.731 60.0983L220.551 60.3479L241.953 25.593L241.828 25.4682C240.996 26.4249 240.081 27.5065 239.083 28.7128C238.126 29.8775 237.211 30.9799 236.337 32.0198C235.505 33.0598 234.777 33.9333 234.153 34.6405C233.571 35.3477 233.259 35.7012 233.217 35.7012C232.968 35.7012 232.843 35.5972 232.843 35.3893C232.843 35.3061 232.864 35.2229 232.905 35.1397C232.989 35.0565 233.134 34.8901 233.342 34.6405C233.592 34.3493 233.966 33.9333 234.465 33.3926C234.965 32.8102 235.651 31.9782 236.524 30.8967C237.98 29.0664 239.145 27.6105 240.019 26.5289C240.934 25.4058 241.745 24.3866 242.452 23.4715C243.201 22.5147 243.929 21.5164 244.636 20.4764C245.385 19.3949 246.321 17.9806 247.444 16.2335L250.688 15.6719L237.398 38.1971ZM273.193 30.2103C273.193 29.4616 273.027 28.8168 272.694 28.276C272.361 27.6937 271.8 27.4025 271.009 27.4025C269.928 27.4025 268.784 27.8601 267.578 28.7752C266.371 29.6904 265.269 30.8343 264.27 32.207C263.272 33.5798 262.44 35.0565 261.775 36.6372C261.151 38.2179 260.839 39.653 260.839 40.9426C260.839 41.8161 260.984 42.4193 261.275 42.7521C261.608 43.0848 262.003 43.2512 262.461 43.2512C263.709 43.2512 264.957 42.8353 266.205 42.0033C267.494 41.1713 268.638 40.1314 269.637 38.8835C270.677 37.5939 271.529 36.1796 272.195 34.6405C272.86 33.1014 273.193 31.6247 273.193 30.2103ZM274.566 30.9591C274.566 31.5831 274.462 32.2486 274.254 32.9558C274.046 33.6629 273.755 34.3701 273.38 35.0773C273.048 35.7844 272.652 36.4708 272.195 37.1364C271.779 37.7603 271.342 38.3011 270.885 38.7587C271.217 38.8419 271.446 38.8835 271.571 38.8835C272.652 38.8835 273.692 38.6131 274.691 38.0723C275.689 37.4899 276.583 36.7412 277.374 35.826C277.79 35.3685 278.039 35.0773 278.123 34.9525C278.247 34.8277 278.351 34.7653 278.435 34.7653C278.643 34.7653 278.747 34.8693 278.747 35.0773C278.747 35.1605 278.663 35.3061 278.497 35.514C278.331 35.722 277.894 36.2004 277.187 36.9492C276.396 37.7811 275.46 38.4467 274.379 38.9459C273.339 39.4034 272.216 39.6322 271.009 39.6322C270.51 39.6322 270.24 39.6114 270.198 39.5698C269.241 40.6514 268.097 41.6705 266.766 42.6273C265.477 43.5424 263.959 44 262.211 44C260.963 44 260.007 43.5216 259.341 42.5649C258.676 41.5665 258.343 40.1938 258.343 38.4467C258.343 37.3236 258.384 36.554 258.468 36.138C258.592 35.722 258.655 35.4101 258.655 35.2021C258.655 34.9525 258.592 34.8277 258.468 34.8277C258.218 34.8277 257.989 34.9941 257.781 35.3269C257.573 35.6596 257.428 35.826 257.344 35.826C257.095 35.826 256.97 35.722 256.97 35.514C256.97 35.4309 257.074 35.2437 257.282 34.9525C257.532 34.6613 257.844 34.3285 258.218 33.9541C258.592 33.5798 258.988 33.1846 259.404 32.7686C259.82 32.3526 260.215 31.9574 260.589 31.5831C262.461 29.8359 264.27 28.588 266.018 27.8393C267.806 27.0489 269.408 26.6537 270.822 26.6537C272.028 26.6537 272.944 27.0697 273.568 27.9017C274.233 28.692 274.566 29.7112 274.566 30.9591ZM289.729 26.6537C287.815 29.732 286.255 32.1654 285.049 33.9541C283.884 35.7012 282.969 37.0948 282.304 38.1347C281.68 39.1331 281.243 39.9026 280.993 40.4434C280.785 40.9842 280.681 41.5665 280.681 42.1905C280.681 42.5649 280.785 42.8353 280.993 43.0017C281.243 43.168 281.492 43.2512 281.742 43.2512C282.532 43.2512 283.593 42.7105 284.924 41.6289C286.297 40.5474 287.732 39.1955 289.23 37.5731C290.727 35.9508 292.183 34.1829 293.597 32.2694C295.053 30.3559 296.26 28.5672 297.216 26.9033L301.21 26.6537C300.919 27.1113 300.482 27.7769 299.899 28.6504C299.359 29.4824 298.735 30.3975 298.028 31.3959C297.32 32.3942 296.592 33.4342 295.844 34.5157C295.137 35.5972 294.471 36.6372 293.847 37.6355C293.265 38.6339 292.765 39.549 292.349 40.381C291.975 41.1713 291.788 41.7745 291.788 42.1905C291.788 42.8977 292.142 43.2512 292.849 43.2512C293.306 43.2512 294.034 42.9185 295.033 42.2529C296.031 41.5873 297.258 40.485 298.714 38.9459C299.629 37.9891 300.336 37.2404 300.835 36.6996C301.376 36.1172 301.771 35.7012 302.021 35.4517C302.271 35.1605 302.416 34.9733 302.458 34.8901C302.541 34.8069 302.624 34.7653 302.707 34.7653C302.915 34.7653 303.019 34.8693 303.019 35.0773C303.019 35.1605 302.895 35.3477 302.645 35.6388C302.395 35.93 302.083 36.2836 301.709 36.6996C301.335 37.1156 300.919 37.5523 300.461 38.0099C300.045 38.4675 299.671 38.8835 299.338 39.2579C297.757 40.8802 296.426 42.0865 295.345 42.8769C294.305 43.6256 293.369 44 292.537 44C291.954 44 291.497 43.8752 291.164 43.6256C290.831 43.3344 290.561 42.9809 290.353 42.5649C290.186 42.1489 290.062 41.7121 289.978 41.2545C289.937 40.797 289.916 40.381 289.916 40.0066C289.916 39.1331 290.062 38.3427 290.353 37.6355L290.228 37.5107C289.77 38.0099 289.209 38.6339 288.543 39.3826C287.878 40.0898 287.15 40.797 286.359 41.5041C285.569 42.1697 284.758 42.7521 283.926 43.2512C283.136 43.7504 282.387 44 281.68 44C280.681 44 279.953 43.688 279.496 43.064C279.038 42.3985 278.809 41.5873 278.809 40.6306C278.809 39.4242 279.017 38.3011 279.433 37.2612C279.891 36.2212 280.453 35.2437 281.118 34.3285C281.784 33.3718 282.491 32.4566 283.24 31.5831C283.988 30.6679 284.654 29.7736 285.236 28.9L285.111 28.7752C284.196 29.4824 283.24 30.3559 282.241 31.3959C281.284 32.4358 280.328 33.455 279.371 34.4533C278.955 34.9109 278.705 35.2021 278.622 35.3269C278.539 35.4517 278.435 35.514 278.31 35.514C278.144 35.514 278.061 35.3893 278.061 35.1397C278.061 35.0981 278.081 35.0357 278.123 34.9525C278.206 34.8277 278.352 34.6613 278.56 34.4533C278.768 34.2037 279.08 33.8501 279.496 33.3926C279.953 32.935 280.536 32.3318 281.243 31.5831C281.867 30.9175 282.574 30.1895 283.364 29.3992C284.196 28.6088 285.153 27.7769 286.235 26.9033L289.729 26.6537ZM292.474 16.795C293.181 16.795 293.909 16.9198 294.658 17.1694C295.407 17.3774 296.176 17.627 296.967 17.9182C297.757 18.2094 298.527 18.4798 299.276 18.7293C300.024 18.9373 300.711 19.0413 301.335 19.0413C302.083 19.0413 302.645 18.8957 303.019 18.6045C303.435 18.3134 303.747 18.0014 303.955 17.6686C304.205 17.2942 304.371 16.9614 304.454 16.6702C304.579 16.3791 304.725 16.2335 304.891 16.2335C305.058 16.2335 305.141 16.3791 305.141 16.6702C305.141 16.795 305.058 17.107 304.891 17.6062C304.766 18.1054 304.517 18.6253 304.142 19.1661C303.81 19.7069 303.331 20.2061 302.707 20.6636C302.083 21.0796 301.272 21.2876 300.274 21.2876C299.567 21.2876 298.86 21.1836 298.152 20.9756C297.445 20.7676 296.738 20.518 296.031 20.2269C295.324 19.9357 294.617 19.6861 293.909 19.4781C293.244 19.2701 292.578 19.1661 291.913 19.1661C291.289 19.1661 290.79 19.3117 290.415 19.6029C290.041 19.8525 289.729 20.1645 289.479 20.5388C289.23 20.8716 289.022 21.1836 288.855 21.4748C288.73 21.7244 288.585 21.8492 288.419 21.8492C288.252 21.8492 288.169 21.7036 288.169 21.4124C288.169 21.2876 288.252 20.9756 288.419 20.4764C288.626 19.9773 288.897 19.4573 289.23 18.9165C289.604 18.3758 290.062 17.8974 290.602 17.4814C291.143 17.0238 291.767 16.795 292.474 16.795Z" fill="white"/>
</svg>
